<svg xmlns="http://www.w3.org/2000/svg" viewBox="456 304 1137 1137" width="512" height="512">
<defs>
	<linearGradient id="Gradient1" gradientUnits="userSpaceOnUse" x1="1113.84" y1="1354.46" x2="932.969" y2="589.515">
		<stop class="stop0" offset="0" stop-opacity="1" stop-color="rgb(39,112,205)"/>
		<stop class="stop1" offset="1" stop-opacity="1" stop-color="rgb(81,180,239)"/>
	</linearGradient>
</defs>
<path transform="translate(0,0)" fill="rgb(21,55,100)" d="M 1087.68 473.812 C 1098.29 448.048 1110.55 426.09 1131.91 407.536 C 1154.05 388.306 1181.1 375.807 1209.6 369.262 C 1214.41 368.213 1231.51 363.601 1234.54 369.939 C 1242.8 387.193 1238.67 421.596 1236.48 439.022 L 1230.22 432.284 L 1221.7 426.62 L 1216.16 423.627 C 1207.21 421.304 1198.81 420.331 1189.63 419.652 C 1174.08 424.056 1171.37 426.069 1158.25 430.873 C 1157.12 432.207 1152.89 437.465 1151.77 438.106 C 1139.89 454.745 1138.7 459.483 1135.38 479.534 C 1137.85 488.748 1141.32 505.83 1147.61 512.485 C 1151.9 513.361 1152.06 514.115 1155.24 517.395 C 1157.4 519.307 1159.37 521.046 1161.63 522.856 C 1165.52 524.788 1165.35 523.882 1166.41 526.867 C 1163.89 531.364 1154.96 534.457 1149.91 536.736 C 1158 560.118 1164.38 583.755 1171.89 607.324 C 1189.09 612.273 1221.23 630.192 1236.52 639.74 C 1324.14 694.991 1386.54 782.47 1410.26 883.309 C 1434.04 985.426 1415.93 1092.82 1359.96 1181.48 C 1303.94 1269.9 1215.48 1332.83 1113.58 1356.77 C 1010.38 1380.56 901.958 1362.32 812.223 1306.07 C 721.513 1248.41 660.031 1162.92 636.857 1057.78 C 613.77 955.468 632.832 848.168 689.748 760.067 C 729.485 698.163 785.6 648.483 851.864 616.544 C 872.087 606.611 895.5 597.002 917.588 592.118 C 923.094 574.232 928.251 556.621 934.308 538.89 C 869.213 509.935 840.765 471.717 841.079 398.105 C 841.117 389.249 841.175 375.207 847.022 368.265 C 856.138 364.187 881.577 371.528 890.703 375.068 C 949.423 397.843 969.009 421.726 994.494 475.03 C 1028.12 461.08 1054.04 463.044 1087.68 473.812 z"/>
<path transform="translate(0,0)" fill="url(#Gradient1)" d="M 917.588 592.118 C 911.607 611.132 913.304 613.342 910.032 629.172 C 911.696 654.204 917.961 664.858 933.946 683.61 C 917.833 763.577 886.679 833.653 840.388 900.712 C 806.646 949.591 767.14 1003.13 747.322 1059.48 C 732.039 1102.93 738.781 1107.93 704.178 1142.32 L 707.857 1148.73 C 713.553 1157.93 719.6 1168.85 726.271 1177.08 C 729.564 1182.87 730.679 1184.17 734.985 1189.1 C 751.195 1216.53 806.385 1263.71 834.774 1279.53 C 878.438 1308.32 927.507 1322.29 978.632 1329.91 C 981.783 1330.28 983.406 1330.88 986.279 1330.06 C 1004.8 1335.41 1056.03 1331.62 1076.17 1328.82 L 1084.1 1328.03 C 1117.89 1323.02 1172.41 1303.86 1201.28 1285.92 C 1206.52 1283.93 1207.23 1283.49 1211.44 1279.77 C 1220.83 1256.41 1223.45 1236.79 1228.41 1212.72 C 1229.65 1206.71 1240.66 1190.24 1243.73 1182.89 C 1257.45 1150.06 1264.15 1115.19 1264.23 1079.61 C 1264.23 1064.1 1260.51 1057.8 1250.42 1047.94 C 1255.92 1039.89 1263.02 1030.87 1267.53 1022.45 C 1284.31 991.121 1244.59 960.725 1217.75 982.723 C 1214 985.795 1211.57 989.616 1208.85 993.498 C 1205.74 980.792 1200.49 964.636 1196.74 951.801 C 1243.53 891.682 1156.74 831.45 1136.02 780.868 C 1128.46 762.416 1126.71 727.644 1125.17 706.858 C 1148.63 687.529 1165.33 674.814 1173.57 643.883 C 1176.09 629.133 1175.33 621.858 1171.89 607.324 C 1189.09 612.273 1221.23 630.192 1236.52 639.74 C 1324.14 694.991 1386.54 782.47 1410.26 883.309 C 1434.04 985.426 1415.93 1092.82 1359.96 1181.48 C 1303.94 1269.9 1215.48 1332.83 1113.58 1356.77 C 1010.38 1380.56 901.958 1362.32 812.223 1306.07 C 721.513 1248.41 660.031 1162.92 636.857 1057.78 C 613.77 955.468 632.832 848.168 689.748 760.067 C 729.485 698.163 785.6 648.483 851.864 616.544 C 872.087 606.611 895.5 597.002 917.588 592.118 z"/>
<path transform="translate(0,0)" fill="rgb(255,255,255)" d="M 1173.57 643.883 C 1197.16 656.075 1213.16 664.557 1234.89 679.981 C 1298.36 725.197 1345.53 789.706 1369.37 863.901 C 1397.61 953.366 1389.76 1050.33 1347.5 1134.08 C 1322.5 1183.07 1286.67 1225.73 1242.73 1258.81 C 1234.05 1265.37 1220.89 1274.81 1211.44 1279.77 C 1220.83 1256.41 1223.45 1236.79 1228.41 1212.72 C 1229.65 1206.71 1240.66 1190.24 1243.73 1182.89 C 1257.45 1150.06 1264.15 1115.19 1264.23 1079.61 C 1264.23 1064.1 1260.51 1057.8 1250.42 1047.94 C 1255.92 1039.89 1263.02 1030.87 1267.53 1022.45 C 1284.31 991.121 1244.59 960.725 1217.75 982.723 C 1214 985.795 1211.57 989.616 1208.85 993.498 C 1205.74 980.792 1200.49 964.636 1196.74 951.801 C 1243.53 891.682 1156.74 831.45 1136.02 780.868 C 1128.46 762.416 1126.71 727.644 1125.17 706.858 C 1148.63 687.529 1165.33 674.814 1173.57 643.883 z"/>
<path transform="translate(0,0)" fill="rgb(255,255,255)" d="M 704.178 1142.32 C 697.512 1129.56 691.701 1117.79 686.468 1104.36 C 651.601 1015.16 653.564 915.766 691.925 828.012 C 726.075 750.968 785.833 688.117 861.057 650.126 C 877.579 641.664 892.726 635.87 910.032 629.172 C 911.696 654.204 917.961 664.858 933.946 683.61 C 917.833 763.577 886.679 833.653 840.388 900.712 C 806.646 949.591 767.14 1003.13 747.322 1059.48 C 732.039 1102.93 738.781 1107.93 704.178 1142.32 z"/>
<path transform="translate(0,0)" fill="rgb(233,145,80)" d="M 933.715 716.6 C 955.959 740.126 984.251 758.396 1016.75 763.433 L 1017.06 764.428 C 1016.9 776.728 1015.11 800.368 1012.95 812.625 C 1008.89 814.446 1009.74 813.39 1007.59 816.649 C 1005.99 827.7 1016.58 857.859 1024.14 867.108 C 1040.5 887.11 1068.02 894.741 1085.13 914.148 C 1104.08 931.556 1107.67 972.038 1072.58 968.133 C 1056.42 966.336 1048.33 942.36 1039.14 939.34 C 1012.28 930.515 982.117 932.02 959.221 911.196 C 949.687 902.526 943.143 888.254 937.062 876.58 C 934.377 876.051 935.733 875.963 932.987 877.611 C 931.146 882.867 935.381 889.687 937.808 894.907 C 950.641 914.523 962.254 926.315 985.608 933.409 C 984.286 938.494 983.414 941.809 981.485 946.789 L 981.447 947.587 C 976.2 961.721 972.863 971.469 969.109 986.288 C 967.019 994.537 964.393 1010.24 962.006 1017.32 C 959.509 1020.44 958.095 1021.2 959.575 1025.61 C 956.334 1042.46 953.123 1060.89 952.7 1078.03 C 932.799 1060.82 904.132 1042.14 877.468 1036.31 C 875.024 1035.77 873.785 1038.16 872.47 1039.8 C 875.8 1043.07 904.979 1054.38 912.49 1058.41 C 997.651 1104 1019.07 1206.43 991.604 1293.33 C 988.146 1306.05 983.492 1317.66 978.632 1329.91 C 927.507 1322.29 878.438 1308.32 834.774 1279.53 C 806.385 1263.71 751.195 1216.53 734.985 1189.1 C 733.279 1167.79 734.662 1132.67 740.749 1112.45 C 743.09 1084.27 770.283 1016.68 787.32 993.892 C 798.766 971.121 828.4 931.032 843.28 909.1 C 874.301 863.378 893.079 829.787 913.629 779.03 C 914.614 774.966 919.316 762.53 920.892 758.091 C 925.954 743.834 929.972 731.226 933.715 716.6 z"/>
<path transform="translate(0,0)" fill="rgb(211,115,66)" d="M 740.749 1112.45 C 741.716 1111.33 742.579 1110.23 743.42 1109 C 752.367 1146.55 757.404 1171.4 778.939 1204.92 C 784.166 1213 789.842 1220.79 795.94 1228.24 C 803.789 1237.86 833.556 1269 834.774 1279.53 C 806.385 1263.71 751.195 1216.53 734.985 1189.1 C 733.279 1167.79 734.662 1132.67 740.749 1112.45 z"/>
<path transform="translate(0,0)" fill="rgb(246,179,126)" d="M 857.763 1036.76 C 861.108 1037.29 869.979 1038.35 872.47 1039.8 C 875.8 1043.07 904.979 1054.38 912.49 1058.41 C 997.651 1104 1019.07 1206.43 991.604 1293.33 C 990.344 1284.73 992.987 1267.26 993.645 1257.94 C 998.451 1189.89 976.135 1122.61 923.4 1077.57 C 902.943 1060.1 881.792 1048.98 857.763 1036.76 z"/>
<path transform="translate(0,0)" fill="rgb(246,179,126)" d="M 913.629 779.03 C 914.608 780.262 915.453 780.528 915.1 781.952 C 894.928 863.522 838.416 927.799 790.168 994.224 C 788.116 994.564 789.058 994.721 787.32 993.892 C 798.766 971.121 828.4 931.032 843.28 909.1 C 874.301 863.378 893.079 829.787 913.629 779.03 z"/>
<path transform="translate(0,0)" fill="rgb(211,115,66)" d="M 937.808 894.907 C 950.641 914.523 962.254 926.315 985.608 933.409 C 984.286 938.494 983.414 941.809 981.485 946.789 C 960.096 940.015 939.344 917.866 937.808 894.907 z"/>
<path transform="translate(0,0)" fill="rgb(243,215,183)" d="M 959.575 1025.61 C 1037.21 1066.97 1131.4 1104.02 1221.07 1080.15 C 1229.41 1077.93 1239.24 1073.55 1245.96 1068.11 C 1249.3 1065.28 1250.41 1061.64 1253.43 1061.68 C 1260.99 1072.94 1254.47 1119.89 1251.78 1133.37 C 1245.94 1163.17 1233.93 1191.42 1216.53 1216.31 C 1208.8 1217.82 1198.4 1225.9 1190.7 1229.14 C 1139.27 1250.8 1076.13 1247.91 1029.86 1215.18 C 1021.73 1209.43 1016.45 1200.14 1008.9 1194.8 C 1002.5 1146.51 986.476 1112.67 952.7 1078.03 C 953.123 1060.89 956.334 1042.46 959.575 1025.61 z"/>
<path transform="translate(0,0)" fill="rgb(243,215,183)" d="M 1120.62 736.605 C 1124.24 780.865 1141.88 845.656 1161.54 885.371 C 1156.2 902.199 1153.17 913.71 1152.82 931.495 C 1139.26 928.884 1127.79 929.442 1115.67 937.263 C 1112.48 939.353 1109.51 941.758 1106.8 944.443 C 1095.48 880.292 1034.85 895.878 1018.87 839.548 C 1016.37 830.755 1015.33 821.34 1012.95 812.625 C 1015.11 800.368 1016.9 776.728 1017.06 764.428 C 1021.81 763.543 1038.53 765.684 1045.07 765.136 C 1078 762.379 1094.23 752.498 1120.62 736.605 z"/>
<path transform="translate(0,0)" fill="rgb(222,180,145)" d="M 1008.9 1194.8 C 1016.45 1200.14 1021.73 1209.43 1029.86 1215.18 C 1076.13 1247.91 1139.27 1250.8 1190.7 1229.14 C 1198.4 1225.9 1208.8 1217.82 1216.53 1216.31 C 1163.79 1287.9 1082.57 1319.49 995.194 1306.21 C 1009.21 1269.1 1011.09 1233.66 1008.9 1194.8 z"/>
<path transform="translate(0,0)" fill="rgb(246,179,126)" d="M 1228.31 373.348 C 1233.98 390.45 1232 414.511 1230.22 432.284 L 1221.7 426.62 L 1216.16 423.627 C 1207.21 421.304 1198.81 420.331 1189.63 419.652 C 1174.08 424.056 1171.37 426.069 1158.25 430.873 C 1157.12 432.207 1152.89 437.465 1151.77 438.106 C 1149 439.96 1148.89 440.536 1145.81 440.942 C 1147.15 437.655 1147.72 436.495 1147.74 432.815 C 1133.04 458.358 1130.35 468.847 1123.57 497.108 C 1115.01 489.602 1105.45 481.821 1094.74 477.533 C 1094.33 467.674 1114.96 436.827 1121.65 428.61 C 1146.36 398.266 1189.62 377.1 1228.31 373.348 z"/>
<path transform="translate(0,0)" fill="rgb(222,180,145)" d="M 1170.79 404.742 C 1179.61 398.12 1209.78 375.596 1220.46 388.029 C 1225.68 394.104 1223.51 418.285 1221.7 426.62 L 1216.16 423.627 C 1207.21 421.304 1198.81 420.331 1189.63 419.652 C 1174.08 424.056 1171.37 426.069 1158.25 430.873 C 1157.12 432.207 1152.89 437.465 1151.77 438.106 C 1149 439.96 1148.89 440.536 1145.81 440.942 C 1147.15 437.655 1147.72 436.495 1147.74 432.815 C 1153.3 422.033 1162.09 413.008 1170.79 404.742 z"/>
<path transform="translate(0,0)" fill="rgb(27,54,86)" d="M 1170.79 404.742 C 1179.61 398.12 1209.78 375.596 1220.46 388.029 C 1225.68 394.104 1223.51 418.285 1221.7 426.62 L 1216.16 423.627 L 1216.12 419.165 C 1217.04 412.807 1218.16 397.909 1214.77 392.58 C 1200.38 385.455 1165.77 418.724 1158.25 430.873 C 1157.12 432.207 1152.89 437.465 1151.77 438.106 C 1149 439.96 1148.89 440.536 1145.81 440.942 C 1147.15 437.655 1147.72 436.495 1147.74 432.815 C 1153.3 422.033 1162.09 413.008 1170.79 404.742 z"/>
<path transform="translate(0,0)" fill="rgb(243,215,183)" d="M 1189.63 419.652 C 1197.27 417.12 1207.75 408.058 1215.88 403.265 C 1215.79 408.868 1215.9 413.59 1216.12 419.165 L 1216.16 423.627 C 1207.21 421.304 1198.81 420.331 1189.63 419.652 z"/>
<path transform="translate(0,0)" fill="rgb(233,145,80)" d="M 1094.74 477.533 C 1102.88 471.659 1108.7 458.932 1116.94 448.719 C 1128.23 434.727 1149.37 411.071 1166.33 402.964 C 1167.82 402.255 1168.86 403.543 1170.79 404.742 C 1162.09 413.008 1153.3 422.033 1147.74 432.815 C 1133.04 458.358 1130.35 468.847 1123.57 497.108 C 1115.01 489.602 1105.45 481.821 1094.74 477.533 z"/>
<path transform="translate(0,0)" fill="rgb(243,215,183)" d="M 981.447 947.587 C 1000.28 953.71 1024.57 958.787 1041.23 969.236 C 1048.05 973.514 1049.86 974.327 1057.41 976.727 C 996.725 990.16 999.588 981.296 1013.44 1044.6 C 995.541 1037.01 978.331 1027.88 962.006 1017.32 C 964.393 1010.24 967.019 994.537 969.109 986.288 C 972.863 971.469 976.2 961.721 981.447 947.587 z"/>
<path transform="translate(0,0)" fill="rgb(211,115,66)" d="M 1217.56 1227.47 C 1215.6 1249.11 1209.22 1266.1 1201.28 1285.92 C 1172.41 1303.86 1117.89 1323.02 1084.1 1328.03 L 1082.81 1311.47 C 1146.68 1295.9 1175.17 1275.24 1217.56 1227.47 z"/>
<path transform="translate(0,0)" fill="rgb(222,180,145)" d="M 1019.2 732.937 C 1055.99 740.521 1087.43 731.306 1118.66 711.226 C 1119.22 718.75 1119.67 729.368 1120.62 736.605 C 1094.23 752.498 1078 762.379 1045.07 765.136 C 1038.53 765.684 1021.81 763.543 1017.06 764.428 L 1016.75 763.433 C 1017.89 757.781 1018.67 739.699 1019.2 732.937 z"/>
<path transform="translate(0,0)" fill="rgb(211,115,66)" d="M 933.715 716.6 L 940.391 690.166 C 964.554 709.531 988.612 725.289 1019.2 732.937 C 1018.67 739.699 1017.89 757.781 1016.75 763.433 C 984.251 758.396 955.959 740.126 933.715 716.6 z"/>
<path transform="translate(0,0)" fill="rgb(255,255,255)" d="M 993.123 1313.05 C 1022.61 1318.6 1045.26 1318.12 1074.75 1312.78 C 1075.57 1318.26 1075.82 1323.31 1076.17 1328.82 C 1056.03 1331.62 1004.8 1335.41 986.279 1330.06 L 993.123 1313.05 z"/>
<path transform="translate(0,0)" fill="rgb(222,180,145)" d="M 985.608 933.409 C 1006.81 941.036 1022.04 940.242 1038.29 945.469 C 1047.05 960.623 1052.18 966.992 1068.69 974.382 L 1057.41 976.727 C 1049.86 974.327 1048.05 973.514 1041.23 969.236 C 1024.57 958.787 1000.28 953.71 981.447 947.587 L 981.485 946.789 C 983.414 941.809 984.286 938.494 985.608 933.409 z"/>
<path transform="translate(0,0)" fill="rgb(211,115,66)" d="M 707.857 1148.73 C 717.987 1140.44 722.394 1134.55 730.544 1124.1 C 727.926 1140.54 726.043 1160.3 726.271 1177.08 C 719.6 1168.85 713.553 1157.93 707.857 1148.73 z"/>
<path transform="translate(0,0)" fill="rgb(222,180,145)" d="M 1129.99 502.927 C 1132.24 495.297 1133.76 487.334 1135.38 479.534 C 1137.85 488.748 1141.32 505.83 1147.61 512.485 C 1145 514.449 1142.73 515.552 1139.89 517.135 C 1136.28 512.681 1133.16 507.715 1129.99 502.927 z"/>
<path transform="translate(0,0)" fill="rgb(233,145,80)" d="M 1155.24 517.395 C 1157.4 519.307 1159.37 521.046 1161.63 522.856 C 1157.73 524.64 1149.93 529.418 1146.9 529.336 C 1144.56 526.676 1144.95 528.08 1144.47 525.151 C 1146.88 521.712 1151.45 519.611 1155.24 517.395 z"/>
<path transform="translate(0,0)" fill="rgb(233,145,80)" d="M 946.408 529.617 C 951.064 517.983 960.217 507.031 969.663 498.962 C 1016.57 458.892 1087.37 464.281 1126.76 511.811 C 1143.22 530.38 1148.64 555.701 1155.48 578.882 C 1160.6 596.235 1169.18 615.08 1168.03 633.507 C 1165.95 666.784 1126.68 702.74 1097.82 714.473 C 1074.21 728.185 1042.67 732.463 1016.36 725.207 C 1012.64 724.181 1000.34 720.164 997.617 717.829 C 968.006 706.442 926.803 677.069 919.157 644.129 C 912.605 615.899 929.318 585.172 935.567 557.911 C 937.28 550.442 942.419 536.173 946.408 529.617 z"/>
<path transform="translate(0,0)" fill="rgb(243,215,183)" d="M 997.617 717.829 C 993.955 711.467 989.005 703.543 986.82 696.594 C 977.165 665.884 1001.58 628.658 1030.74 619.202 C 1044.48 614.792 1059.41 616.126 1072.15 622.901 C 1095.04 634.891 1111.77 661.521 1108.65 687.772 C 1107.5 697.466 1102.44 706.079 1097.82 714.473 C 1074.21 728.185 1042.67 732.463 1016.36 725.207 C 1012.64 724.181 1000.34 720.164 997.617 717.829 z"/>
<path transform="translate(0,0)" fill="rgb(21,55,100)" d="M 1037.3 632.32 C 1049.05 631.685 1084.83 629.92 1077.99 653.232 C 1075 663.427 1060.37 670.695 1051.01 675.083 L 1050.84 697.873 C 1069.33 694.542 1072.48 683.273 1081.1 681.901 C 1086.07 690.906 1066.58 700.65 1059.67 703.496 C 1043.49 707.212 1022.88 704.023 1013.57 688.141 C 1012.32 686.015 1012.72 684.362 1013.57 682.328 C 1020.27 681.556 1025.7 691.133 1031.4 694.365 C 1035.04 696.427 1039.5 697.329 1043.55 698.277 C 1043.84 690.667 1043.64 682.574 1043.58 674.917 C 1032.71 670.855 1017.18 661.599 1015.21 649.226 C 1014.68 646.038 1015.5 642.774 1017.48 640.219 C 1022.05 634.414 1030.46 633.271 1037.3 632.32 z"/>
<path transform="translate(0,0)" fill="rgb(246,179,126)" d="M 946.408 529.617 C 951.064 517.983 960.217 507.031 969.663 498.962 C 1016.57 458.892 1087.37 464.281 1126.76 511.811 L 1124.25 512.254 C 1091.55 488.162 1064.12 478.404 1023.56 484.262 C 993.265 488.637 966.78 502.878 949.061 527.73 C 948.083 529.101 948.137 528.794 946.408 529.617 z"/>
<path transform="translate(0,0)" fill="rgb(21,55,100)" d="M 1108.05 574.009 C 1133.91 572.2 1140.46 604.001 1120.07 616.938 C 1095.05 619.828 1085.82 588.3 1108.05 574.009 z"/>
<path transform="translate(0,0)" fill="rgb(255,255,255)" d="M 1104.37 580.944 C 1108.02 579.825 1111.9 581.759 1113.2 585.341 C 1114.5 588.924 1112.77 592.897 1109.26 594.378 C 1106.82 595.405 1104.02 595.006 1101.97 593.34 C 1099.91 591.675 1098.95 589.014 1099.45 586.419 C 1099.96 583.825 1101.85 581.72 1104.37 580.944 z"/>
<path transform="translate(0,0)" fill="rgb(21,55,100)" d="M 975.139 574.049 C 1001.3 574.463 1002.67 607.575 980.188 617.316 C 977.938 617.445 975.461 617.603 973.281 616.992 C 968.783 615.691 964.971 612.683 962.66 608.61 C 955.211 595.235 962.24 580.764 975.139 574.049 z"/>
<path transform="translate(0,0)" fill="rgb(255,255,255)" d="M 982.339 581.696 C 985.792 580.201 989.804 581.781 991.31 585.23 C 992.815 588.679 991.247 592.696 987.803 594.212 C 984.344 595.734 980.306 594.158 978.794 590.694 C 977.282 587.231 978.871 583.198 982.339 581.696 z"/>
<path transform="translate(0,0)" fill="rgb(243,215,183)" d="M 863.917 419.069 C 863.068 414.391 860.223 390.738 868.401 392.246 C 885.624 395.423 904.454 409.352 916.38 422.12 C 939.731 447.376 944.331 475.112 952.684 506.005 C 949.452 510.666 946.688 516.179 942.388 519.014 C 939.607 519.097 939.522 518.753 936.942 517.509 C 892.232 497.36 867.341 469.956 863.917 419.069 z"/>
<path transform="translate(0,0)" fill="rgb(222,180,145)" d="M 863.917 419.069 C 863.068 414.391 860.223 390.738 868.401 392.246 C 885.624 395.423 904.454 409.352 916.38 422.12 C 939.731 447.376 944.331 475.112 952.684 506.005 C 949.452 510.666 946.688 516.179 942.388 519.014 C 939.607 519.097 939.522 518.753 936.942 517.509 C 931.59 475.896 921.008 452.533 888.549 423.781 C 883.497 419.306 870.71 409.364 864 409.976 L 863.917 419.069 z"/>
<path transform="translate(0,0)" fill="rgb(127,206,121)" d="M 1134.28 937.652 C 1156.86 933.606 1178.45 948.642 1182.48 971.227 C 1186.51 993.812 1171.46 1015.38 1148.87 1019.4 C 1126.3 1023.41 1104.76 1008.38 1100.73 985.814 C 1096.7 963.251 1111.72 941.694 1134.28 937.652 z"/>
<path transform="translate(0,0)" fill="rgb(21,55,100)" d="M 1159.22 954.619 C 1191.81 958.29 1146.38 1000.84 1135.74 1005.04 C 1129.36 1005.05 1126.42 1001.61 1121.66 997.586 C 1100.34 981.902 1113.08 959.132 1134.54 979.934 C 1143.24 971.839 1150.34 961.887 1159.22 954.619 z"/>
<path transform="translate(0,0)" fill="rgb(255,255,255)" d="M 1160.69 961.793 C 1164.29 964.619 1163.54 962.935 1164.23 966.428 C 1161.29 974.723 1142.54 993.138 1135.69 1000.32 C 1130.39 996.741 1126.28 992.611 1121.63 988.245 C 1119.05 985.928 1118.99 985.833 1117.01 982.97 C 1117.08 979.642 1116.63 981.151 1118.54 978.318 L 1120.94 978.039 C 1126.43 980.323 1130.6 984.844 1135.42 988.552 C 1143.36 981.238 1152.2 970.091 1160.69 961.793 z"/>
<path transform="translate(0,0)" fill="rgb(72,158,224)" d="M 1021.6 1048.16 C 1019.09 1037.17 1010.45 1005.44 1012.93 996.754 C 1020.47 988.368 1078.53 980.098 1093.62 976.488 C 1094.95 997.752 1104.33 1007.88 1108.48 1028.79 C 1091.78 1042.03 1092.06 1055.34 1100.38 1073.52 C 1091.09 1071.24 1059.85 1061.85 1054.37 1061.18 L 1052.72 1059.98 L 1052.56 1058.43 C 1055.99 1054.34 1061.21 1051.16 1065.68 1048.04 C 1072.52 1050.02 1082.08 1054.97 1087.46 1048.17 C 1089.68 1041.09 1086.48 1036.33 1083.5 1029.42 C 1087.87 1023.56 1093.92 1017.66 1091.59 1010.12 C 1086.26 1005.36 1078.81 1006.8 1071.37 1006.97 C 1067.11 1000.63 1063.01 991.412 1054.37 993.111 C 1048.24 997.817 1047.77 1003.94 1045.65 1011.64 C 1021.01 1017.76 1022.65 1026.27 1042.67 1037.64 C 1042.16 1046.13 1042.11 1049.61 1045.04 1057.55 C 1040.59 1055.87 1036.11 1054.25 1031.62 1052.69 C 1028.24 1051.11 1025.04 1049.59 1021.6 1048.16 z"/>
<path transform="translate(0,0)" fill="rgb(233,145,80)" d="M 1140.07 804.723 C 1145.16 808.525 1153.8 824.46 1158.53 830.116 C 1183 859.431 1224.59 910.31 1190.46 948.179 L 1182.81 953.106 C 1175.41 943.127 1170.37 939.415 1159.86 933.332 C 1159.85 916.412 1164.61 899.728 1168.82 883.465 C 1157.27 863.021 1146.52 827.494 1140.07 804.723 z"/>
<path transform="translate(0,0)" fill="rgb(165,127,239)" d="M 1161.97 1031.03 C 1183.17 1029.14 1192.91 1042.71 1186.08 1062.95 C 1183.82 1069.62 1180.12 1074.41 1176.02 1080.03 C 1156.11 1080.75 1139.34 1079.33 1119.76 1076.78 C 1115.86 1076.2 1113.23 1075.42 1109.4 1074.36 C 1099.56 1059.1 1096.33 1036.09 1121.4 1032.78 C 1130.75 1031.55 1139.07 1039.83 1145.38 1046.02 C 1151.3 1037.71 1152.58 1035.82 1161.97 1031.03 z"/>
<path transform="translate(0,0)" fill="rgb(233,145,80)" d="M 849.654 377.6 C 851.17 375.46 850.63 376.101 852.696 374.448 C 858.192 373.687 862.432 375.05 867.895 376.22 C 909.881 385.934 948.452 408.094 971.349 445.335 C 976.475 453.671 984.047 467.382 986.484 476.883 L 986.859 477.822 C 986.585 478.43 962.987 495.238 958.261 499.744 C 948.192 457.695 939.377 428.185 903.829 400.825 C 892.791 392.965 881.703 388.55 868.908 384.544 C 862.481 383.672 863.545 379.908 855.566 379.215 C 853.408 379.178 851.778 378.346 849.654 377.6 z"/>
<path transform="translate(0,0)" fill="rgb(246,179,126)" d="M 849.654 377.6 C 851.17 375.46 850.63 376.101 852.696 374.448 C 858.192 373.687 862.432 375.05 867.895 376.22 C 909.881 385.934 948.452 408.094 971.349 445.335 C 976.475 453.671 984.047 467.382 986.484 476.883 C 981.607 475.387 977.435 469 975.169 464.298 C 966.42 446.147 924.264 398.019 903.829 400.825 C 892.791 392.965 881.703 388.55 868.908 384.544 C 862.481 383.672 863.545 379.908 855.566 379.215 C 853.408 379.178 851.778 378.346 849.654 377.6 z"/>
<path transform="translate(0,0)" fill="rgb(222,180,145)" d="M 849.654 377.6 C 851.17 375.46 850.63 376.101 852.696 374.448 C 858.192 373.687 862.432 375.05 867.895 376.22 C 862.913 378.937 861.128 378.677 855.566 379.215 C 853.408 379.178 851.778 378.346 849.654 377.6 z"/>
<path transform="translate(0,0)" fill="rgb(245,196,68)" d="M 1216.49 1008.34 C 1210.81 1017.21 1200.76 1033.89 1194.29 1041.04 C 1191.66 1039.85 1192.88 1040.57 1191.15 1036.99 C 1192.04 1030.87 1216.66 990.024 1224.08 985.881 C 1230.67 982.201 1234.18 980.336 1242.03 981.628 C 1249.68 982.943 1256.43 987.411 1260.63 993.944 C 1271.38 1010.68 1259.13 1024.02 1250.09 1037.69 C 1243.39 1047.82 1235.36 1058.27 1229.5 1068.9 C 1218.27 1074.88 1212.65 1076.46 1199.72 1076.59 L 1190.6 1069.21 C 1191.74 1065.74 1192 1063.17 1194.45 1060.88 C 1206.85 1070.39 1213.29 1076.28 1225.35 1061.11 C 1225.59 1057.08 1226.48 1055.76 1224.59 1053.44 L 1220.61 1053.53 L 1217.69 1050.52 C 1217.46 1044.57 1237.13 1015.91 1240.82 1015.32 L 1244.15 1018.02 L 1245.63 1019.37 C 1246.82 1017.98 1246.33 1018.73 1247.09 1017.11 L 1247.94 1017.39 L 1248.89 1015.99 C 1250.17 1013.41 1250.84 1010.72 1251.7 1007.95 L 1252.99 1007.95 L 1253.85 1006.09 C 1253.66 999.475 1249.57 995.603 1244.14 992.385 C 1231.4 984.83 1223.82 1005.96 1216.49 1008.34 z"/>
<path transform="translate(0,0)" fill="rgb(27,54,86)" d="M 1216.49 1008.34 C 1220.18 1001.39 1226.08 991.456 1233.67 990.611 C 1260.23 987.653 1261.95 1009.77 1248.37 1026.89 C 1240.25 1037.12 1231.77 1051.24 1225.35 1061.11 C 1225.59 1057.08 1226.48 1055.76 1224.59 1053.44 L 1220.61 1053.53 L 1217.69 1050.52 C 1217.46 1044.57 1237.13 1015.91 1240.82 1015.32 L 1244.15 1018.02 L 1245.63 1019.37 C 1246.82 1017.98 1246.33 1018.73 1247.09 1017.11 L 1247.94 1017.39 L 1248.89 1015.99 C 1250.17 1013.41 1250.84 1010.72 1251.7 1007.95 L 1252.99 1007.95 L 1253.85 1006.09 C 1253.66 999.475 1249.57 995.603 1244.14 992.385 C 1231.4 984.83 1223.82 1005.96 1216.49 1008.34 z"/>
<path transform="translate(0,0)" fill="rgb(245,196,68)" d="M 1220.61 1053.53 L 1217.69 1050.52 C 1217.46 1044.57 1237.13 1015.91 1240.82 1015.32 L 1244.15 1018.02 C 1238.6 1027.56 1228.68 1046.74 1220.61 1053.53 z"/>
<path transform="translate(0,0)" fill="rgb(233,145,80)" d="M 868.908 384.544 C 855.953 384.899 855.275 394.912 855.59 405.882 C 857 454.889 877.413 498.621 923.735 519.497 C 928.378 521.59 939.265 524.168 939.413 529.553 C 937.337 531.442 938.507 530.852 935.8 531.432 C 918.861 526.736 892.701 508.881 880.24 495.739 C 856.87 471.093 849.13 437.415 848.034 404.307 C 847.787 396.833 849.47 387.023 849.626 379.318 L 849.654 377.6 C 851.778 378.346 853.408 379.178 855.566 379.215 C 863.545 379.908 862.481 383.672 868.908 384.544 z"/>
<path transform="translate(0,0)" fill="rgb(72,158,224)" d="M 1056.83 999.369 C 1061.36 1002.9 1064.93 1008.22 1068.48 1012.87 L 1088.03 1012.98 C 1083.97 1019.72 1081.94 1022.1 1076.75 1028.12 C 1079.09 1034.5 1080.95 1040.3 1082.94 1046.81 C 1077.1 1045.43 1069.92 1042.74 1064.12 1040.73 C 1059.27 1045.08 1054.27 1049.27 1049.13 1053.29 C 1048.69 1047.06 1048.95 1040.87 1049.08 1034.61 C 1044.24 1030.41 1040.19 1029.42 1035.54 1025.1 C 1035.13 1019.27 1047.75 1019.58 1050.23 1016.23 C 1052.88 1012.64 1054.07 1004.91 1056.83 999.369 z"/>
<path transform="translate(0,0)" fill="rgb(243,215,183)" d="M 1187.34 956.237 L 1189.91 957.472 C 1194.54 965.219 1200.1 991.463 1203.68 1002.26 C 1198.72 1011.36 1191.88 1021.17 1185.9 1029.66 L 1177.88 1025.56 C 1170.43 1023.55 1167.92 1023.71 1160.41 1023.75 C 1180.89 1012.15 1191.58 996.557 1189.52 972.144 C 1189.02 966.204 1186.41 962.619 1187.34 956.237 z"/>
<path transform="translate(0,0)" fill="rgb(255,255,255)" d="M 1220.28 1014.39 C 1227.87 998.956 1242.01 982.984 1251.7 1007.95 C 1250.84 1010.72 1250.17 1013.41 1248.89 1015.99 C 1245.74 1011.17 1244.06 1008.58 1238.06 1008.55 C 1232.1 1011.64 1230.87 1016.22 1228.04 1022.29 L 1220.28 1014.39 z"/>
<path transform="translate(0,0)" fill="rgb(243,215,183)" d="M 1208.84 1032.92 C 1213.45 1038.23 1208.86 1052.75 1214.24 1057.36 C 1215.93 1058.82 1216.23 1060.03 1216.5 1061.85 C 1213.77 1063.75 1211.49 1063.72 1208.17 1064.18 C 1190.83 1055.76 1200.65 1043.55 1208.84 1032.92 z"/>
<path transform="translate(0,0)" fill="rgb(214,213,194)" d="M 1128.69 1025.38 C 1140.67 1027.92 1145.24 1027.12 1157.19 1025.42 C 1151.75 1029.07 1148.9 1030.81 1144.21 1035.38 C 1138.79 1030.75 1135.7 1028.31 1128.69 1025.93 L 1128.69 1025.38 z"/>
<path transform="translate(0,0)" fill="rgb(210,206,206)" d="M 1128.69 1025.93 C 1121.93 1025.38 1119.38 1027.74 1114.68 1024.5 C 1113.37 1020.95 1113.27 1022.56 1114.12 1019.51 C 1117.05 1019.22 1124.8 1023.7 1128.69 1025.38 L 1128.69 1025.93 z"/>
<path transform="translate(0,0)" fill="rgb(210,206,206)" d="M 1215.91 1022.86 C 1217.32 1024.61 1218.4 1026.48 1219.61 1028.39 C 1220.29 1032.45 1219.3 1033.33 1217.19 1037.2 L 1216.95 1037.31 L 1216.02 1036.57 C 1215.55 1031.89 1214.65 1027.27 1215.91 1022.86 z"/>
<path transform="translate(0,0)" fill="rgb(255,255,255)" d="M 1151.6 447.932 C 1177.53 417.256 1220.93 416.836 1240.94 452.742 C 1257.65 487.805 1236.54 521.608 1199.92 527.522 C 1201.96 522.397 1207.34 509.796 1208.53 505.028 C 1203.28 512.424 1200.54 519.75 1195.9 527.529 C 1184.64 526.303 1176.79 525.59 1166.81 519.179 C 1154.83 511.36 1146.5 499.055 1143.69 485.031 C 1140.73 470.645 1143.56 459.796 1151.6 447.932 z"/>
<path transform="translate(0,0)" fill="rgb(229,69,68)" d="M 1151.6 447.932 C 1177.53 417.256 1220.93 416.836 1240.94 452.742 L 1237.84 452.856 C 1231.21 459.324 1224.37 458.225 1214.49 459.611 L 1203.04 451.874 C 1183.74 449.857 1171.38 459.016 1168.14 478.392 C 1162.2 469.953 1155.84 453.474 1151.6 447.932 z"/>
<path transform="translate(0,0)" fill="rgb(246,179,126)" d="M 1203.04 451.874 C 1211.13 450.486 1230.34 450.935 1237.84 452.856 C 1231.21 459.324 1224.37 458.225 1214.49 459.611 L 1203.04 451.874 z"/>
<path transform="translate(0,0)" fill="rgb(52, 168, 83)" d="M 1151.6 447.932 C 1155.84 453.474 1162.2 469.953 1168.14 478.392 C 1172.6 494.192 1179.17 502.66 1197.06 501.258 C 1202.46 500.835 1206.7 498.799 1212.04 498.25 C 1211.51 499.267 1208.82 504.247 1208.53 505.028 C 1203.28 512.424 1200.54 519.75 1195.9 527.529 C 1184.64 526.303 1176.79 525.59 1166.81 519.179 C 1154.83 511.36 1146.5 499.055 1143.69 485.031 C 1140.73 470.645 1143.56 459.796 1151.6 447.932 z"/>
<path transform="translate(0,0)" fill="rgb(245,196,68)" d="M 1240.94 452.742 C 1257.65 487.805 1236.54 521.608 1199.92 527.522 C 1201.96 522.397 1207.34 509.796 1208.53 505.028 C 1208.82 504.247 1211.51 499.267 1212.04 498.25 C 1222.71 487.59 1223.38 471.682 1214.49 459.611 C 1224.37 458.225 1231.21 459.324 1237.84 452.856 L 1240.94 452.742 z"/>
<path transform="translate(0,0)" fill="rgb(72,158,224)" d="M 1192.67 457.365 C 1203 456.134 1212.39 463.456 1213.72 473.774 C 1215.05 484.092 1207.81 493.553 1197.51 494.976 C 1187.06 496.418 1177.45 489.067 1176.11 478.611 C 1174.76 468.156 1182.2 458.612 1192.67 457.365 z"/>
</svg>